<svg xmlns="http://www.w3.org/2000/svg" xmlns:xlink="http://www.w3.org/1999/xlink" contentStyleType="text/css" data-diagram-type="STATE" height="2455.2083px" preserveAspectRatio="none" style="width:831px;height:2455px;background:#FEFEFE;" version="1.1" viewBox="0 0 831 2455" width="831.25px" zoomAndPan="magnify"><title>Issue Lifecycle - State Machine</title><defs/><g><rect fill="#FEFEFE" height="2455.2083" style="stroke:none;stroke-width:1.0417;" width="831.25" x="0" y="0"/><g class="title" data-source-line="4"><rect fill="none" height="48.2361" rx="4.1667" ry="4.1667" style="stroke:#BABDBF;stroke-width:1.0417;" width="386.32" x="217.8519" y="20.8333"/><text fill="#2FA4E7" font-family="'Verdana'" font-size="20.8333" font-weight="bold" lengthAdjust="spacing" textLength="363.4033" x="229.3103" y="53.2369">Issue Lifecycle - State Machine</text></g><rect fill="none" height="170.5597" rx="4.1667" ry="4.1667" style="stroke:#2FA4E7;stroke-width:1.0417;" width="96.2056" x="348.5521" y="197.1944"/><line style="stroke:#2FA4E7;stroke-width:1.0417;" x1="348.5521" x2="444.7577" y1="231.9534" y2="231.9534"/><text fill="#BABDBF" font-family="'Verdana'" font-size="11.4583" lengthAdjust="spacing" textLength="45.078" x="374.1159" y="219.131">Created</text><ellipse cx="398.2188" cy="253.8284" fill="#033C73" rx="10.4167" ry="10.4167" style="stroke:#2683B9;stroke-width:1.0417;"/><g id="Created.Triaged"><rect fill="none" height="55.5923" rx="4.1667" ry="4.1667" style="stroke:#2FA4E7;stroke-width:1.0417;" width="74.3306" x="361.0521" y="301.7451"/><line style="stroke:#2FA4E7;stroke-width:1.0417;" x1="361.0521" x2="435.3827" y1="336.5041" y2="336.5041"/><text fill="#BABDBF" font-family="'Verdana'" font-size="11.4583" lengthAdjust="spacing" textLength="43.0806" x="376.6771" y="323.6816">Triaged</text></g><!--link *start*Created to Triaged--><g class="link" data-entity-1=".start.Created" data-entity-2="Triaged" data-source-line="9" data-uid="lnk6" id="link_.start.Created_Triaged"><path d="M398.2188,264.4951 C398.2188,273.8493 398.2188,282.2555 398.2188,295.1722" fill="none" id="*start*Created-to-Triaged" style="stroke:#2FA4E7;stroke-width:3.125;"/><polygon fill="#2FA4E7" points="398.2188,301.4222,402.3854,292.0472,398.2188,296.2138,394.0521,292.0472,398.2188,301.4222" style="stroke:#2FA4E7;stroke-width:3.125;"/></g><rect fill="none" height="532.1222" rx="4.1667" ry="4.1667" style="stroke:#2FA4E7;stroke-width:1.0417;" width="223.5205" x="284.8958" y="472.9653"/><line style="stroke:#2FA4E7;stroke-width:1.0417;" x1="284.8958" x2="508.4163" y1="507.7243" y2="507.7243"/><text fill="#BABDBF" font-family="'Verdana'" font-size="11.4583" lengthAdjust="spacing" textLength="65.6504" x="363.8309" y="494.9018">In Progress</text><ellipse cx="349.8958" cy="529.5993" fill="#033C73" rx="10.4167" ry="10.4167" style="stroke:#2683B9;stroke-width:1.0417;"/><g id="InProgress.Analyzing"><rect fill="none" height="55.5923" rx="4.1667" ry="4.1667" style="stroke:#2FA4E7;stroke-width:1.0417;" width="86.6954" x="306.5521" y="578.5576"/><line style="stroke:#2FA4E7;stroke-width:1.0417;" x1="306.5521" x2="393.2474" y1="613.3166" y2="613.3166"/><text fill="#BABDBF" font-family="'Verdana'" font-size="11.4583" lengthAdjust="spacing" textLength="55.4454" x="322.1771" y="600.4941">Analyzing</text></g><g id="InProgress.Decomposed"><rect fill="none" height="55.5923" rx="4.1667" ry="4.1667" style="stroke:#2FA4E7;stroke-width:1.0417;" width="105.0018" x="297.3958" y="698.7243"/><line style="stroke:#2FA4E7;stroke-width:1.0417;" x1="297.3958" x2="402.3977" y1="733.4833" y2="733.4833"/><text fill="#BABDBF" font-family="'Verdana'" font-size="11.4583" lengthAdjust="spacing" textLength="73.7518" x="313.0208" y="720.6608">Decomposed</text></g><g id="InProgress.Generating"><rect fill="none" height="55.5923" rx="4.1667" ry="4.1667" style="stroke:#2FA4E7;stroke-width:1.0417;" width="94.8583" x="302.4688" y="818.9013"/><line style="stroke:#2FA4E7;stroke-width:1.0417;" x1="302.4688" x2="397.327" y1="853.6604" y2="853.6604"/><text fill="#BABDBF" font-family="'Verdana'" font-size="11.4583" lengthAdjust="spacing" textLength="63.6083" x="318.0938" y="840.8379">Generating</text></g><g id="InProgress.Generated"><rect fill="none" height="55.5923" rx="4.1667" ry="4.1667" style="stroke:#2FA4E7;stroke-width:1.0417;" width="91.2888" x="304.25" y="939.0784"/><line style="stroke:#2FA4E7;stroke-width:1.0417;" x1="304.25" x2="395.5388" y1="973.8374" y2="973.8374"/><text fill="#BABDBF" font-family="'Verdana'" font-size="11.4583" lengthAdjust="spacing" textLength="60.0388" x="319.875" y="961.015">Generated</text></g><!--link *start*InProgress to Analyzing--><g class="link" data-entity-1=".start.InProgress" data-entity-2="Analyzing" data-source-line="13" data-uid="lnk9" id="link_.start.InProgress_Analyzing"><path d="M349.8958,540.4013 C349.8958,549.9638 349.8958,558.7347 349.8958,571.9222" fill="none" id="*start*InProgress-to-Analyzing" style="stroke:#2FA4E7;stroke-width:3.125;"/><polygon fill="#2FA4E7" points="349.8958,578.1722,354.0625,568.7972,349.8958,572.9638,345.7292,568.7972,349.8958,578.1722" style="stroke:#2FA4E7;stroke-width:3.125;"/></g><!--link Analyzing to Decomposed--><g class="link" data-entity-1="Analyzing" data-entity-2="Decomposed" data-source-line="14" data-uid="lnk11" id="link_Analyzing_Decomposed"><path d="M349.8958,634.4847 C349.8958,653.6826 349.8958,673.0888 349.8958,692.2659" fill="none" id="Analyzing-to-Decomposed" style="stroke:#2FA4E7;stroke-width:3.125;"/><polygon fill="#2FA4E7" points="349.8958,698.5159,354.0625,689.1409,349.8958,693.3076,345.7292,689.1409,349.8958,698.5159" style="stroke:#2FA4E7;stroke-width:3.125;"/><text fill="#343A40" font-family="'Verdana'" font-size="12.5" lengthAdjust="spacing" textLength="98.0164" x="356.1458" y="671.7081">Tasks identified</text></g><!--link Decomposed to Generating--><g class="link" data-entity-1="Decomposed" data-entity-2="Generating" data-source-line="15" data-uid="lnk13" id="link_Decomposed_Generating"><path d="M349.8958,754.6618 C349.8958,773.8597 349.8958,793.2659 349.8958,812.443" fill="none" id="Decomposed-to-Generating" style="stroke:#2FA4E7;stroke-width:3.125;"/><polygon fill="#2FA4E7" points="349.8958,818.693,354.0625,809.318,349.8958,813.4847,345.7292,809.318,349.8958,818.693" style="stroke:#2FA4E7;stroke-width:3.125;"/><text fill="#343A40" font-family="'Verdana'" font-size="12.5" lengthAdjust="spacing" textLength="136.6455" x="356.1458" y="791.8852">Start code generation</text></g><!--link Generating to Generated--><g class="link" data-entity-1="Generating" data-entity-2="Generated" data-source-line="16" data-uid="lnk15" id="link_Generating_Generated"><path d="M349.8958,874.8388 C349.8958,894.0368 349.8958,913.443 349.8958,932.6201" fill="none" id="Generating-to-Generated" style="stroke:#2FA4E7;stroke-width:3.125;"/><polygon fill="#2FA4E7" points="349.8958,938.8701,354.0625,929.4951,349.8958,933.6618,345.7292,929.4951,349.8958,938.8701" style="stroke:#2FA4E7;stroke-width:3.125;"/><text fill="#343A40" font-family="'Verdana'" font-size="12.5" lengthAdjust="spacing" textLength="93.2373" x="356.1458" y="912.0622">Code complete</text></g><rect fill="none" height="411.9555" rx="4.1667" ry="4.1667" style="stroke:#2FA4E7;stroke-width:1.0417;" width="399.566" x="17.7083" y="1110.2986"/><line style="stroke:#2FA4E7;stroke-width:1.0417;" x1="17.7083" x2="417.2743" y1="1145.0576" y2="1145.0576"/><text fill="#BABDBF" font-family="'Verdana'" font-size="11.4583" lengthAdjust="spacing" textLength="79.5929" x="177.6949" y="1132.2351">Quality Check</text><ellipse cx="282.5625" cy="1166.9326" fill="#033C73" rx="10.4167" ry="10.4167" style="stroke:#2683B9;stroke-width:1.0417;"/><g id="QA.Testing"><rect fill="none" height="55.5923" rx="4.1667" ry="4.1667" style="stroke:#2FA4E7;stroke-width:1.0417;" width="73.1557" x="245.9792" y="1215.8909"/><line style="stroke:#2FA4E7;stroke-width:1.0417;" x1="245.9792" x2="319.1349" y1="1250.6499" y2="1250.6499"/><text fill="#BABDBF" font-family="'Verdana'" font-size="11.4583" lengthAdjust="spacing" textLength="41.9057" x="261.6042" y="1237.8275">Testing</text></g><g id="QA.Reviewing"><rect fill="none" height="55.5923" rx="4.1667" ry="4.1667" style="stroke:#2FA4E7;stroke-width:1.0417;" width="89.7054" x="141.875" y="1336.068"/><line style="stroke:#2FA4E7;stroke-width:1.0417;" x1="141.875" x2="231.5804" y1="1370.827" y2="1370.827"/><text fill="#BABDBF" font-family="'Verdana'" font-size="11.4583" lengthAdjust="spacing" textLength="58.4554" x="157.5" y="1358.0046">Reviewing</text></g><g id="QA.Failed"><rect fill="none" height="55.5923" rx="4.1667" ry="4.1667" style="stroke:#2FA4E7;stroke-width:1.0417;" width="64.9704" x="250.0729" y="1456.2451"/><line style="stroke:#2FA4E7;stroke-width:1.0417;" x1="250.0729" x2="315.0433" y1="1491.0041" y2="1491.0041"/><text fill="#BABDBF" font-family="'Verdana'" font-size="11.4583" lengthAdjust="spacing" textLength="33.7204" x="265.6979" y="1478.1816">Failed</text></g><g id="QA.Approved"><rect fill="none" height="55.5923" rx="4.1667" ry="4.1667" style="stroke:#2FA4E7;stroke-width:1.0417;" width="85.9512" x="30.2083" y="1456.2451"/><line style="stroke:#2FA4E7;stroke-width:1.0417;" x1="30.2083" x2="116.1596" y1="1491.0041" y2="1491.0041"/><text fill="#BABDBF" font-family="'Verdana'" font-size="11.4583" lengthAdjust="spacing" textLength="54.7012" x="45.8333" y="1478.1816">Approved</text></g><!--link *start*QA to Testing--><g class="link" data-entity-1=".start.QA" data-entity-2="Testing" data-source-line="20" data-uid="lnk18" id="link_.start.QA_Testing"><path d="M282.5625,1177.7451 C282.5625,1187.3076 282.5625,1196.0784 282.5625,1209.2659" fill="none" id="*start*QA-to-Testing" style="stroke:#2FA4E7;stroke-width:3.125;"/><polygon fill="#2FA4E7" points="282.5625,1215.5159,286.7292,1206.1409,282.5625,1210.3076,278.3958,1206.1409,282.5625,1215.5159" style="stroke:#2FA4E7;stroke-width:3.125;"/></g><!--link Testing to Reviewing--><g class="link" data-entity-1="Testing" data-entity-2="Reviewing" data-source-line="21" data-uid="lnk20" id="link_Testing_Reviewing"><path d="M245.6146,1253.0784 C225.5833,1259.6513 202.4063,1271.0263 189.8542,1290.2347 C181.2292,1303.4326 179.7291,1314.832 181.0207,1329.3945" fill="none" id="Testing-to-Reviewing" style="stroke:#2FA4E7;stroke-width:3.125;"/><polygon fill="#2FA4E7" points="181.5729,1335.6201,184.895,1325.9136,181.1128,1330.4321,176.5943,1326.6499,181.5729,1335.6201" style="stroke:#2FA4E7;stroke-width:3.125;"/><text fill="#343A40" font-family="'Verdana'" font-size="12.5" lengthAdjust="spacing" textLength="65.8142" x="196.1042" y="1309.0518">Tests pass</text></g><!--link Testing to Failed--><g class="link" data-entity-1="Testing" data-entity-2="Failed" data-source-line="22" data-uid="lnk22" id="link_Testing_Failed"><path d="M282.5625,1271.5993 C282.5625,1317.3597 282.5625,1403.6722 282.5625,1449.6097" fill="none" id="Testing-to-Failed" style="stroke:#2FA4E7;stroke-width:3.125;"/><polygon fill="#2FA4E7" points="282.5625,1455.8597,286.7292,1446.4847,282.5625,1450.6513,278.3958,1446.4847,282.5625,1455.8597" style="stroke:#2FA4E7;stroke-width:3.125;"/><text fill="#343A40" font-family="'Verdana'" font-size="12.5" lengthAdjust="spacing" textLength="56.2561" x="288.8125" y="1369.1456">Tests fail</text></g><!--link Reviewing to Approved--><g class="link" data-entity-1="Reviewing" data-entity-2="Approved" data-source-line="23" data-uid="lnk24" id="link_Reviewing_Approved"><path d="M141.4375,1375.3909 C121.8021,1382.2034 100.25,1393.1409 86.7292,1410.4118 C76.6875,1423.2347 73.6578,1434.9648 72.7619,1449.8085" fill="none" id="Reviewing-to-Approved" style="stroke:#2FA4E7;stroke-width:3.125;"/><polygon fill="#2FA4E7" points="72.3854,1456.0472,77.1093,1446.9402,72.6992,1450.8483,68.7911,1446.4382,72.3854,1456.0472" style="stroke:#2FA4E7;stroke-width:3.125;"/><text fill="#343A40" font-family="'Verdana'" font-size="12.5" lengthAdjust="spacing" textLength="77.356" x="92.9792" y="1429.2289">Review pass</text></g><!--link Reviewing to Failed--><g class="link" data-entity-1="Reviewing" data-entity-2="Failed" data-source-line="24" data-uid="lnk25" id="link_Reviewing_Failed"><path d="M180.5938,1392.0472 C178.8333,1406.6097 179.2813,1424.2243 187.7708,1437.4951 C201.4375,1458.8805 222.1943,1468.7521 243.8089,1474.8667" fill="none" id="Reviewing-to-Failed" style="stroke:#2FA4E7;stroke-width:3.125;"/><polygon fill="#2FA4E7" points="249.8229,1476.568,241.9361,1470.0067,244.8113,1475.1503,239.6677,1478.0254,249.8229,1476.568" style="stroke:#2FA4E7;stroke-width:3.125;"/><text fill="#343A40" font-family="'Verdana'" font-size="12.5" lengthAdjust="spacing" textLength="67.7979" x="194.0208" y="1429.2289">Review fail</text></g><!--link Failed to Testing--><g class="link" data-entity-1="Failed" data-entity-2="Testing" data-source-line="25" data-uid="lnk26" id="link_Failed_Testing"><path d="M312.1979,1456.1097 C328.375,1439.3701 346.8229,1416.3701 355.4792,1391.6618 C363.6458,1368.3493 363.6458,1359.3909 355.4792,1336.068 C346.8229,1311.3701 332.7183,1292.8644 316.5412,1276.1248" fill="none" id="Failed-to-Testing" style="stroke:#2FA4E7;stroke-width:3.125;"/><polygon fill="#2FA4E7" points="312.1979,1271.6305,315.7166,1281.2674,315.8173,1275.3757,321.709,1275.4764,312.1979,1271.6305" style="stroke:#2FA4E7;stroke-width:3.125;"/><text fill="#343A40" font-family="'Verdana'" font-size="12.5" lengthAdjust="spacing" textLength="33.7952" x="367.8542" y="1369.1456">Retry</text></g><rect fill="none" height="291.7784" rx="4.1667" ry="4.1667" style="stroke:#2FA4E7;stroke-width:1.0417;" width="162.7926" x="373.5938" y="1627.4653"/><line style="stroke:#2FA4E7;stroke-width:1.0417;" x1="373.5938" x2="536.3863" y1="1662.2243" y2="1662.2243"/><text fill="#BABDBF" font-family="'Verdana'" font-size="11.4583" lengthAdjust="spacing" textLength="100.445" x="404.7675" y="1649.4018">Ready for Review</text><ellipse cx="446.9271" cy="1684.0993" fill="#033C73" rx="10.4167" ry="10.4167" style="stroke:#2683B9;stroke-width:1.0417;"/><g id="Ready.DraftPR"><rect fill="none" height="55.5923" rx="4.1667" ry="4.1667" style="stroke:#2FA4E7;stroke-width:1.0417;" width="75.2706" x="409.2917" y="1733.0576"/><line style="stroke:#2FA4E7;stroke-width:1.0417;" x1="409.2917" x2="484.5623" y1="1767.8166" y2="1767.8166"/><text fill="#BABDBF" font-family="'Verdana'" font-size="11.4583" lengthAdjust="spacing" textLength="44.0206" x="424.9167" y="1754.9941">DraftPR</text></g><g id="Ready.AwaitingHuman"><rect fill="none" height="55.5923" rx="4.1667" ry="4.1667" style="stroke:#2FA4E7;stroke-width:1.0417;" width="121.6746" x="386.0938" y="1853.2347"/><line style="stroke:#2FA4E7;stroke-width:1.0417;" x1="386.0938" x2="507.7684" y1="1887.9937" y2="1887.9937"/><text fill="#BABDBF" font-family="'Verdana'" font-size="11.4583" lengthAdjust="spacing" textLength="90.4246" x="401.7188" y="1875.1712">AwaitingHuman</text></g><!--link *start*Ready to DraftPR--><g class="link" data-entity-1=".start.Ready" data-entity-2="DraftPR" data-source-line="29" data-uid="lnk29" id="link_.start.Ready_DraftPR"><path d="M446.9271,1694.9013 C446.9271,1704.4743 446.9271,1713.2451 446.9271,1726.4326" fill="none" id="*start*Ready-to-DraftPR" style="stroke:#2FA4E7;stroke-width:3.125;"/><polygon fill="#2FA4E7" points="446.9271,1732.6826,451.0938,1723.3076,446.9271,1727.4743,442.7604,1723.3076,446.9271,1732.6826" style="stroke:#2FA4E7;stroke-width:3.125;"/></g><!--link DraftPR to AwaitingHuman--><g class="link" data-entity-1="DraftPR" data-entity-2="AwaitingHuman" data-source-line="30" data-uid="lnk31" id="link_DraftPR_AwaitingHuman"><path d="M446.9271,1788.9951 C446.9271,1808.193 446.9271,1827.5993 446.9271,1846.7763" fill="none" id="DraftPR-to-AwaitingHuman" style="stroke:#2FA4E7;stroke-width:3.125;"/><polygon fill="#2FA4E7" points="446.9271,1853.0263,451.0938,1843.6513,446.9271,1847.818,442.7604,1843.6513,446.9271,1853.0263" style="stroke:#2FA4E7;stroke-width:3.125;"/><text fill="#343A40" font-family="'Verdana'" font-size="12.5" lengthAdjust="spacing" textLength="67.5842" x="453.1771" y="1826.2185">PR created</text></g><rect fill="none" height="291.7784" rx="4.1667" ry="4.1667" style="stroke:#2FA4E7;stroke-width:1.0417;" width="173.5682" x="368.2083" y="2024.4444"/><line style="stroke:#2FA4E7;stroke-width:1.0417;" x1="368.2083" x2="541.7765" y1="2059.2034" y2="2059.2034"/><text fill="#BABDBF" font-family="'Verdana'" font-size="11.4583" lengthAdjust="spacing" textLength="53.6382" x="428.1733" y="2046.381">Deployed</text><ellipse cx="426.8229" cy="2081.0784" fill="#033C73" rx="10.4167" ry="10.4167" style="stroke:#2683B9;stroke-width:1.0417;"/><g id="Deployed.Staging"><rect fill="none" height="55.5923" rx="4.1667" ry="4.1667" style="stroke:#2FA4E7;stroke-width:1.0417;" width="75.1531" x="389.25" y="2130.0368"/><line style="stroke:#2FA4E7;stroke-width:1.0417;" x1="389.25" x2="464.4031" y1="2164.7958" y2="2164.7958"/><text fill="#BABDBF" font-family="'Verdana'" font-size="11.4583" lengthAdjust="spacing" textLength="43.9031" x="404.875" y="2151.9733">Staging</text></g><g id="Deployed.Production"><rect fill="none" height="55.5923" rx="4.1667" ry="4.1667" style="stroke:#2FA4E7;stroke-width:1.0417;" width="92.2287" x="380.7083" y="2250.2138"/><line style="stroke:#2FA4E7;stroke-width:1.0417;" x1="380.7083" x2="472.937" y1="2284.9729" y2="2284.9729"/><text fill="#BABDBF" font-family="'Verdana'" font-size="11.4583" lengthAdjust="spacing" textLength="60.9787" x="396.3333" y="2272.1504">Production</text></g><!--link *start*Deployed to Staging--><g class="link" data-entity-1=".start.Deployed" data-entity-2="Staging" data-source-line="34" data-uid="lnk34" id="link_.start.Deployed_Staging"><path d="M426.8229,2091.8805 C426.8229,2101.4534 426.8229,2110.2243 426.8229,2123.4118" fill="none" id="*start*Deployed-to-Staging" style="stroke:#2FA4E7;stroke-width:3.125;"/><polygon fill="#2FA4E7" points="426.8229,2129.6618,430.9896,2120.2868,426.8229,2124.4534,422.6563,2120.2868,426.8229,2129.6618" style="stroke:#2FA4E7;stroke-width:3.125;"/></g><!--link Staging to Production--><g class="link" data-entity-1="Staging" data-entity-2="Production" data-source-line="35" data-uid="lnk36" id="link_Staging_Production"><path d="M426.8229,2185.9743 C426.8229,2205.1722 426.8229,2224.5784 426.8229,2243.7555" fill="none" id="Staging-to-Production" style="stroke:#2FA4E7;stroke-width:3.125;"/><polygon fill="#2FA4E7" points="426.8229,2250.0055,430.9896,2240.6305,426.8229,2244.7972,422.6563,2240.6305,426.8229,2250.0055" style="stroke:#2FA4E7;stroke-width:3.125;"/><text fill="#343A40" font-family="'Verdana'" font-size="12.5" lengthAdjust="spacing" textLength="93.0786" x="433.0729" y="2223.1977">Deploy to prod</text></g><ellipse cx="396.6563" cy="97.1944" fill="#033C73" rx="10.4167" ry="10.4167" style="stroke:#2683B9;stroke-width:1.0417;"/><ellipse cx="454.9896" cy="2432.8923" fill="none" rx="11.4583" ry="11.4583" style="stroke:#033C73;stroke-width:1.0417;"/><ellipse cx="454.9896" cy="2432.8923" fill="none" rx="6.25" ry="6.25" style="stroke:#033C73;stroke-width:1.0417;"/><g class="entity" data-entity="GMN2" data-source-line="51" data-uid="ent0003" id="entity_GMN2"><path d="M481.5833,238.2465 L481.5833,278.309 L445.0833,282.4757 L481.5833,286.6423 L481.5833,326.7048 A4.1667,4.1667 0 0 0 485.75,330.8714 L672.1473,330.8714 A4.1667,4.1667 0 0 0 676.314,326.7048 L676.314,244.4965 L665.8973,234.0798 L485.75,234.0798 A4.1667,4.1667 0 0 0 481.5833,238.2465" fill="none" style="stroke:#033C73;stroke-width:1.0417;"/><path d="M665.8973,234.0798 L665.8973,242.4132 A2.0833,2.0833 0 0 0 667.9806,244.4965 L676.314,244.4965 L665.8973,234.0798" fill="none" style="stroke:#033C73;stroke-width:1.0417;"/><text fill="#033C73" font-family="'Verdana'" font-size="12.5" font-weight="bold" lengthAdjust="spacing" textLength="83.783" x="493.0417" y="257.0636">Initial State</text><text fill="#033C73" font-family="'Verdana'" font-size="12.5" lengthAdjust="spacing" textLength="162.439" x="493.0417" y="272.2553">- Issue created by human</text><text fill="#033C73" font-family="'Verdana'" font-size="12.5" lengthAdjust="spacing" textLength="99.2859" x="493.0417" y="287.4469">- Labels applied</text><text fill="#033C73" font-family="'Verdana'" font-size="12.5" lengthAdjust="spacing" textLength="155.0232" x="493.0417" y="302.6386">- Added to project board</text><text fill="#033C73" font-family="'Verdana'" font-size="12.5" lengthAdjust="spacing" textLength="114.3372" x="493.0417" y="317.8302">- Priority assigned</text></g><g class="entity" data-entity="GMN5" data-source-line="59" data-uid="ent0006" id="entity_GMN5"><path d="M544.9688,687.2048 L544.9688,734.8611 L508.5313,739.0278 L544.9688,743.1944 L544.9688,790.8547 A4.1667,4.1667 0 0 0 549.1354,795.0214 L731.6753,795.0214 A4.1667,4.1667 0 0 0 735.842,790.8547 L735.842,693.4548 L725.4253,683.0382 L549.1354,683.0382 A4.1667,4.1667 0 0 0 544.9688,687.2048" fill="none" style="stroke:#033C73;stroke-width:1.0417;"/><path d="M725.4253,683.0382 L725.4253,691.3715 A2.0833,2.0833 0 0 0 727.5086,693.4548 L735.842,693.4548 L725.4253,683.0382" fill="none" style="stroke:#033C73;stroke-width:1.0417;"/><text fill="#033C73" font-family="'Verdana'" font-size="12.5" font-weight="bold" lengthAdjust="spacing" textLength="140.5457" x="556.4271" y="706.022">Active Development</text><text fill="#033C73" font-family="'Verdana'" font-size="12.5" lengthAdjust="spacing" textLength="142.4622" x="556.4271" y="721.2136">- Coordinator analyzes</text><text fill="#033C73" font-family="'Verdana'" font-size="12.5" lengthAdjust="spacing" textLength="128.7109" x="556.4271" y="736.4053">- Tasks decomposed</text><text fill="#033C73" font-family="'Verdana'" font-size="12.5" lengthAdjust="spacing" textLength="109.6069" x="556.4271" y="751.5969">- Code generated</text><text fill="#033C73" font-family="'Verdana'" font-size="12.5" lengthAdjust="spacing" textLength="91.7664" x="556.4271" y="766.7886">- Tests written</text><text fill="#033C73" font-family="'Verdana'" font-size="12.5" lengthAdjust="spacing" textLength="158.5815" x="556.4271" y="781.9802">- Duration: 5-10 minutes</text></g><g class="entity" data-entity="GMN8" data-source-line="68" data-uid="ent0009" id="entity_GMN8"><path d="M453.9792,1264.4444 L453.9792,1312.1111 L417.6458,1316.2778 L453.9792,1320.4444 L453.9792,1368.0943 A4.1667,4.1667 0 0 0 458.1458,1372.261 L614.3368,1372.261 A4.1667,4.1667 0 0 0 618.5035,1368.0943 L618.5035,1270.6944 L608.0868,1260.2778 L458.1458,1260.2778 A4.1667,4.1667 0 0 0 453.9792,1264.4444" fill="none" style="stroke:#033C73;stroke-width:1.0417;"/><path d="M608.0868,1260.2778 L608.0868,1268.6111 A2.0833,2.0833 0 0 0 610.1702,1270.6944 L618.5035,1270.6944 L608.0868,1260.2778" fill="none" style="stroke:#033C73;stroke-width:1.0417;"/><text fill="#033C73" font-family="'Verdana'" font-size="12.5" font-weight="bold" lengthAdjust="spacing" textLength="131.7261" x="465.4375" y="1283.2616">Automated Quality</text><text fill="#033C73" font-family="'Verdana'" font-size="12.5" lengthAdjust="spacing" textLength="70.2026" x="465.4375" y="1298.4532">- Unit tests</text><text fill="#033C73" font-family="'Verdana'" font-size="12.5" lengthAdjust="spacing" textLength="117.1143" x="465.4375" y="1313.6449">- TypeScript check</text><text fill="#033C73" font-family="'Verdana'" font-size="12.5" lengthAdjust="spacing" textLength="49.7437" x="465.4375" y="1328.8365">- ESLint</text><text fill="#033C73" font-family="'Verdana'" font-size="12.5" lengthAdjust="spacing" textLength="94.4092" x="465.4375" y="1344.0282">- Security scan</text><text fill="#033C73" font-family="'Verdana'" font-size="12.5" lengthAdjust="spacing" textLength="132.2327" x="465.4375" y="1359.2198">- If failed: auto-retry</text></g><g class="entity" data-entity="GMN11" data-source-line="77" data-uid="ent0012" id="entity_GMN11"><path d="M572.5938,1729.1215 L572.5938,1769.184 L536.75,1773.3507 L572.5938,1777.5173 L572.5938,1817.5798 A4.1667,4.1667 0 0 0 576.7604,1821.7464 L758.22,1821.7464 A4.1667,4.1667 0 0 0 762.3866,1817.5798 L762.3866,1735.3715 L751.97,1724.9548 L576.7604,1724.9548 A4.1667,4.1667 0 0 0 572.5938,1729.1215" fill="none" style="stroke:#033C73;stroke-width:1.0417;"/><path d="M751.97,1724.9548 L751.97,1733.2882 A2.0833,2.0833 0 0 0 754.0533,1735.3715 L762.3866,1735.3715 L751.97,1724.9548" fill="none" style="stroke:#033C73;stroke-width:1.0417;"/><text fill="#033C73" font-family="'Verdana'" font-size="12.5" font-weight="bold" lengthAdjust="spacing" textLength="86.6089" x="584.0521" y="1747.9386">Human Gate</text><text fill="#033C73" font-family="'Verdana'" font-size="12.5" lengthAdjust="spacing" textLength="113.8428" x="584.0521" y="1763.1303">- Draft PR created</text><text fill="#033C73" font-family="'Verdana'" font-size="12.5" lengthAdjust="spacing" textLength="157.5012" x="584.0521" y="1778.3219">- Human review required</text><text fill="#033C73" font-family="'Verdana'" font-size="12.5" lengthAdjust="spacing" textLength="141.9556" x="584.0521" y="1793.5136">- Can request changes</text><text fill="#033C73" font-family="'Verdana'" font-size="12.5" lengthAdjust="spacing" textLength="147.5037" x="584.0521" y="1808.7052">- Can approve &amp; merge</text></g><g class="entity" data-entity="GMN14" data-source-line="85" data-uid="ent0015" id="entity_GMN14"><path d="M578.3542,2126.1111 L578.3542,2166.1736 L542.1042,2170.3403 L578.3542,2174.5069 L578.3542,2214.5693 A4.1667,4.1667 0 0 0 582.5208,2218.736 L727.4692,2218.736 A4.1667,4.1667 0 0 0 731.6358,2214.5693 L731.6358,2132.3611 L721.2192,2121.9444 L582.5208,2121.9444 A4.1667,4.1667 0 0 0 578.3542,2126.1111" fill="none" style="stroke:#033C73;stroke-width:1.0417;"/><path d="M721.2192,2121.9444 L721.2192,2130.2778 A2.0833,2.0833 0 0 0 723.3025,2132.3611 L731.6358,2132.3611 L721.2192,2121.9444" fill="none" style="stroke:#033C73;stroke-width:1.0417;"/><text fill="#033C73" font-family="'Verdana'" font-size="12.5" font-weight="bold" lengthAdjust="spacing" textLength="76.4099" x="589.8125" y="2144.9282">Production</text><text fill="#033C73" font-family="'Verdana'" font-size="12.5" lengthAdjust="spacing" textLength="101.1597" x="589.8125" y="2160.1199">- CI/CD pipeline</text><text fill="#033C73" font-family="'Verdana'" font-size="12.5" lengthAdjust="spacing" textLength="107.5012" x="589.8125" y="2175.3115">- Staging &#8594; Prod</text><text fill="#033C73" font-family="'Verdana'" font-size="12.5" lengthAdjust="spacing" textLength="120.99" x="589.8125" y="2190.5032">- Issue auto-closed</text><text fill="#033C73" font-family="'Verdana'" font-size="12.5" lengthAdjust="spacing" textLength="114.2395" x="589.8125" y="2205.6948">- Metrics collected</text></g><!--link *start* to Created--><g class="link" data-entity-1=".start." data-entity-2="Created" data-source-line="6" data-uid="lnk3" id="link_.start._Created"><path d="M396.6563,108.0903 C396.6563,125.1111 396.6563,155.3298 396.6563,190.4548" fill="none" id="*start*-to-Created" style="stroke:#2FA4E7;stroke-width:3.125;"/><polygon fill="#2FA4E7" points="396.6563,196.7048,400.8229,187.3298,396.6563,191.4965,392.4896,187.3298,396.6563,196.7048" style="stroke:#2FA4E7;stroke-width:3.125;"/><text fill="#343A40" font-family="'Verdana'" font-size="12.5" lengthAdjust="spacing" textLength="149.7925" x="402.9063" y="157.6782">Developer creates issue</text></g><!--link Created to InProgress--><g class="link" data-entity-1="Created" data-entity-2="InProgress" data-source-line="38" data-uid="lnk37" id="link_Created_InProgress"><path d="M396.6563,368.2048 C396.6563,398.7569 396.6563,428.8403 396.6563,466.6111" fill="none" id="Created-to-InProgress" style="stroke:#2FA4E7;stroke-width:3.125;"/><polygon fill="#2FA4E7" points="396.6563,472.8611,400.8229,463.4861,396.6563,467.6528,392.4896,463.4861,396.6563,472.8611" style="stroke:#2FA4E7;stroke-width:3.125;"/><text fill="#343A40" font-family="'Verdana'" font-size="12.5" lengthAdjust="spacing" textLength="128.949" x="402.9063" y="417.8241">Agent picks up issue</text><text fill="#343A40" font-family="'Verdana'" font-size="12.5" lengthAdjust="spacing" textLength="125.1831" x="404.7892" y="433.0157">[Coordinator starts]</text></g><!--link InProgress to QA--><g class="link" data-entity-1="InProgress" data-entity-2="QA" data-source-line="40" data-uid="lnk38" id="link_InProgress_QA"><path d="M284.5521,886.6423 C255.9375,932.184 229.125,984.184 214.3646,1036.3403 C207.7083,1059.8715 204.2953,1078.7347 202.3057,1103.8702" fill="none" id="InProgress-to-QA" style="stroke:#2FA4E7;stroke-width:3.125;"/><polygon fill="#2FA4E7" points="201.8125,1110.1007,206.7059,1101.0837,202.2235,1104.9086,198.3986,1100.4261,201.8125,1110.1007" style="stroke:#2FA4E7;stroke-width:3.125;"/><text fill="#343A40" font-family="'Verdana'" font-size="12.5" lengthAdjust="spacing" textLength="99.5361" x="233.6944" y="1055.1574">Code generated</text><text fill="#343A40" font-family="'Verdana'" font-size="12.5" lengthAdjust="spacing" textLength="125.6958" x="220.6146" y="1070.349">[All tasks complete]</text></g><!--link QA to InProgress--><g class="link" data-entity-1="QA" data-entity-2="InProgress" data-source-line="43" data-uid="lnk40" id="link_QA_InProgress"><path d="M344.3438,1109.8403 C348.6458,1099.5903 352.5833,1089.2986 356.0313,1079.0486 C363.9792,1055.4548 369.157,1036.5974 374.3549,1011.337" fill="none" id="QA-to-InProgress" style="stroke:#2FA4E7;stroke-width:3.125;"/><polygon fill="#2FA4E7" points="375.6146,1005.2153,369.6439,1013.5581,374.5648,1010.3167,377.8062,1015.2377,375.6146,1005.2153" style="stroke:#2FA4E7;stroke-width:3.125;"/><text fill="#343A40" font-family="'Verdana'" font-size="12.5" lengthAdjust="spacing" textLength="88.8428" x="386.9545" y="1055.1574">Fixes required</text><text fill="#343A40" font-family="'Verdana'" font-size="12.5" lengthAdjust="spacing" textLength="117.0227" x="372.8646" y="1070.349">[Regenerate code]</text></g><!--link QA to Ready--><g class="link" data-entity-1="QA" data-entity-2="Ready" data-source-line="42" data-uid="lnk39" id="link_QA_Ready"><path d="M324.6042,1522.5173 C343,1557.7465 358.8672,1588.1648 376.2318,1621.4148" fill="none" id="QA-to-Ready" style="stroke:#2FA4E7;stroke-width:3.125;"/><polygon fill="#2FA4E7" points="379.125,1626.9548,378.4785,1616.716,376.714,1622.3382,371.0918,1620.5736,379.125,1626.9548" style="stroke:#2FA4E7;stroke-width:3.125;"/><text fill="#343A40" font-family="'Verdana'" font-size="12.5" lengthAdjust="spacing" textLength="110.0403" x="374.2432" y="1572.3241">All checks passed</text><text fill="#343A40" font-family="'Verdana'" font-size="12.5" lengthAdjust="spacing" textLength="131.0059" x="363.7604" y="1587.5157">[Tests + Review OK]</text></g><!--link Ready to InProgress--><g class="link" data-entity-1="Ready" data-entity-2="InProgress" data-source-line="45" data-uid="lnk41" id="link_Ready_InProgress"><path d="M536.7604,1651.3611 C542.5208,1643.2361 548.2813,1635.2048 553.9479,1627.4653 C589,1579.5486 616.8958,1578.3715 636.2396,1522.2569 C695.8958,1349.1528 707.9479,1278.7673 636.2396,1110.2986 C609.8229,1048.2361 566.6458,1059.559 526.8646,1005.0903 C520.6667,996.6007 518.0206,993.0249 512.156,983.9624" fill="none" id="Ready-to-InProgress" style="stroke:#2FA4E7;stroke-width:3.125;"/><polygon fill="#2FA4E7" points="508.7604,978.7153,510.3557,988.8497,511.5901,983.0879,517.3519,984.3223,508.7604,978.7153" style="stroke:#2FA4E7;stroke-width:3.125;"/><text fill="#343A40" font-family="'Verdana'" font-size="12.5" lengthAdjust="spacing" textLength="120.7947" x="691.8542" y="1313.7407">Changes requested</text><text fill="#343A40" font-family="'Verdana'" font-size="12.5" lengthAdjust="spacing" textLength="116.9067" x="693.7981" y="1328.9324">[Human feedback]</text></g><!--link Ready to Deployed--><g class="link" data-entity-1="Ready" data-entity-2="Deployed" data-source-line="46" data-uid="lnk42" id="link_Ready_Deployed"><path d="M454.9896,1919.7569 C454.9896,1953.8403 454.9896,1983.9132 454.9896,2017.9861" fill="none" id="Ready-to-Deployed" style="stroke:#2FA4E7;stroke-width:3.125;"/><polygon fill="#2FA4E7" points="454.9896,2024.2361,459.1563,2014.8611,454.9896,2019.0278,450.8229,2014.8611,454.9896,2024.2361" style="stroke:#2FA4E7;stroke-width:3.125;"/><text fill="#343A40" font-family="'Verdana'" font-size="12.5" lengthAdjust="spacing" textLength="68.5852" x="484.4299" y="1969.3032">PR merged</text><text fill="#343A40" font-family="'Verdana'" font-size="12.5" lengthAdjust="spacing" textLength="114.9658" x="461.2396" y="1984.4949">[Human approval]</text></g><!--link Deployed to *end*--><g class="link" data-entity-1="Deployed" data-entity-2=".end." data-source-line="48" data-uid="lnk44" id="link_Deployed_.end."><path d="M454.9896,2316.4653 C454.9896,2360.3923 454.9896,2395.7778 454.9896,2414.7986" fill="none" id="Deployed-to-*end*" style="stroke:#2FA4E7;stroke-width:3.125;"/><polygon fill="#2FA4E7" points="454.9896,2421.0486,459.1563,2411.6736,454.9896,2415.8403,450.8229,2411.6736,454.9896,2421.0486" style="stroke:#2FA4E7;stroke-width:3.125;"/><text fill="#343A40" font-family="'Verdana'" font-size="12.5" lengthAdjust="spacing" textLength="77.3132" x="496.9635" y="2366.2928">Issue closed</text><text fill="#343A40" font-family="'Verdana'" font-size="12.5" lengthAdjust="spacing" textLength="148.761" x="461.2396" y="2381.4845">[Deployment complete]</text></g><!--SRC=[TLNDZXCn3BxFKnYGE1HLm85B3qXLkxjKB69_u0Hxo6RSQTWq6PBCBWLnvG5uH9u4nyvqKz2gbupZp_viVt4VfGrk4JI6mQ9oKpyaQnmsySQuNWMrXMkbRxhW1zSklFK1dXmVvL_J99CimYh60U7Kh57lD7rFuJAfXF1EwKqEr7oQNC5q-XeM0SdUmWoMU8lMznX0ios2oK6Q9ZBoSV5y32hkKJyQW37IXs1KXstpSuzOEJWBlWiO8wDMRlmy0CwTihllndLasv_vPedQRtiVcTy75M-8KuikcRMXH53VP_SJT1XKokXPhZSaqBv5w8hTEy9KJXM6CoooSuveCM5Ln_cWh4axM6nGtt0bv_F3qZ4cuLzERBt0MuDtmYRR8_Ggnd-SZfMnKXvxhEcJFEwXtA2-3_wMlUHY37JejWzLd4giOgvuiaiAkwh42rJj3jOa905pbMAi2rq6jKvd5xdrSX9-Tyhak6-6hN8KdCmYeLeCI-ojtnNzZ1y7mMbYdNIndDXAaca7dOV76iquI1we8nnzL69shVGrWpbDFK5lD8bcw4NBdzsdXVUXDKubAZLcYSIhfgc0EGvDjuYX6zL1oBcra5Y3eqG8IQuowjmfIae-Egj4Piqu6UopSIhltrwDg0E-n-ORFRc0NmSJ67U1OtPMCIMJBFyX5nlbkeAbN0oMKQmHsxmehYhellKyfos6hW8eLfgob6plbq5vHBEoLBJrKfXuR7ERguuuJuI3wJO9_7fS53JJoMJbI2NAoYQQJCWs7KEM8LxlO9DvyDMfkaORCoKhhtqAyxObBvd-5zG9hhqASdKMZ0_vaLBRJUS8WAw5JEPVIlUzOrPpqjOjZjilLrEerKfHl9OmyeKiedQ_UuftBHVnuy7V4Qk4Kj9oa3KqWrVJbozWQzn0U_P1fkTpOJWal-N-b4LK27waVaBAIIJThiTB7KoVH89iFBeyDIxnyHBrm1sAkdHujUOTWUqC5EMO1buA3x5X2J4XqSh9_HHv6TJFFXl5AuZgHrrBhzZEOYMgBDwzNHI8y5Ia-I2RKPvCw7v7ZBDRFLyiwV7to7-R8Fz_l5F-_FhDEwMI7nSlicRhE-g3qVcTMqiggxNq5m00]--></g></svg>